<svg width="568" height="36" viewBox="0 0 568 36" fill="none" xmlns="http://www.w3.org/2000/svg">
<path d="M14.592 35.48C11.936 35.48 9.392 34.952 6.96 33.896C4.528 32.808 2.384 31.256 0.528 29.24L2.976 26.696C4.704 28.552 6.544 29.944 8.496 30.872C10.48 31.8 12.56 32.264 14.736 32.264C16.496 32.264 18.048 31.992 19.392 31.448C20.768 30.872 21.84 30.088 22.608 29.096C23.376 28.072 23.76 26.92 23.76 25.64C23.76 23.912 23.152 22.584 21.936 21.656C20.752 20.728 18.784 20.04 16.032 19.592L11.184 18.824C7.952 18.28 5.568 17.32 4.032 15.944C2.496 14.568 1.728 12.696 1.728 10.328C1.728 8.472 2.224 6.84 3.216 5.432C4.208 4.024 5.584 2.936 7.344 2.168C9.136 1.368 11.2 0.967998 13.536 0.967998C15.904 0.967998 18.224 1.352 20.496 2.12C22.8 2.888 24.896 3.992 26.784 5.432L24.672 8.312C20.992 5.528 17.232 4.136 13.392 4.136C11.792 4.136 10.384 4.392 9.168 4.904C7.952 5.384 7.008 6.072 6.336 6.968C5.664 7.832 5.328 8.856 5.328 10.04C5.328 11.608 5.856 12.808 6.912 13.64C7.968 14.472 9.712 15.08 12.144 15.464L16.944 16.232C20.624 16.84 23.296 17.88 24.96 19.352C26.624 20.792 27.456 22.824 27.456 25.448C27.456 27.4 26.912 29.144 25.824 30.68C24.736 32.184 23.216 33.368 21.264 34.232C19.344 35.064 17.12 35.48 14.592 35.48ZM65.1172 35.528C62.6853 35.528 60.4133 35.096 58.3012 34.232C56.1892 33.336 54.3332 32.104 52.7332 30.536C51.1332 28.936 49.8852 27.096 48.9892 25.016C48.1252 22.904 47.6932 20.632 47.6932 18.2C47.6932 15.768 48.1252 13.512 48.9892 11.432C49.8852 9.32 51.1332 7.48 52.7332 5.912C54.3332 4.312 56.1892 3.08 58.3012 2.216C60.4133 1.32 62.6853 0.871999 65.1172 0.871999C66.8772 0.871999 68.5573 1.096 70.1573 1.544C71.7893 1.96 73.2933 2.584 74.6692 3.416C76.0773 4.216 77.3253 5.208 78.4132 6.392L75.9653 8.984C74.6532 7.48 73.0372 6.328 71.1172 5.528C69.1973 4.696 67.1973 4.28 65.1172 4.28C63.1652 4.28 61.3572 4.632 59.6932 5.336C58.0292 6.04 56.5732 7.032 55.3252 8.312C54.1092 9.56 53.1492 11.032 52.4452 12.728C51.7732 14.392 51.4372 16.216 51.4372 18.2C51.4372 20.152 51.7732 21.976 52.4452 23.672C53.1492 25.368 54.1252 26.856 55.3732 28.136C56.6212 29.384 58.0773 30.36 59.7413 31.064C61.4373 31.768 63.2613 32.12 65.2132 32.12C67.2933 32.12 69.2773 31.72 71.1653 30.92C73.0533 30.088 74.6372 28.952 75.9173 27.512L78.3173 30.008C77.1973 31.16 75.9333 32.152 74.5253 32.984C73.1493 33.816 71.6613 34.456 70.0613 34.904C68.4613 35.32 66.8132 35.528 65.1172 35.528ZM100.718 35V1.4H115.118C117.326 1.4 119.246 1.8 120.878 2.6C122.51 3.4 123.774 4.52 124.67 5.96C125.598 7.4 126.062 9.096 126.062 11.048C126.062 13.256 125.406 15.16 124.094 16.76C122.814 18.328 121.086 19.432 118.91 20.072L126.446 35H122.366L115.166 20.552H104.414V35H100.718ZM104.414 17.432H114.878C117.15 17.432 118.958 16.856 120.302 15.704C121.678 14.552 122.366 13 122.366 11.048C122.366 9.128 121.678 7.592 120.302 6.44C118.958 5.288 117.15 4.712 114.878 4.712H104.414V17.432ZM145.42 35L159.34 1.4H163.804L177.628 35H173.596L169.372 24.44H153.532L149.26 35H145.42ZM154.828 21.272H168.076L161.452 4.808L154.828 21.272ZM201.566 35V4.712H189.422V1.4H217.406V4.712H205.262V35H201.566Z" fill="white"/>
<path d="M265.84 35V1.4H289.888V4.664H269.536V16.664H282.88V19.88H269.536V35H265.84ZM311.796 35V1.4H315.492V35H311.796ZM339.705 35V1.4H343.401L363.609 28.664V1.4H367.113V35H363.849L343.209 7.016V35H339.705ZM387.783 35L401.703 1.4H406.167L419.991 35H415.959L411.735 24.44H395.895L391.623 35H387.783ZM397.191 21.272H410.439L403.815 4.808L397.191 21.272ZM440.665 35V1.4H444.361L464.569 28.664V1.4H468.073V35H464.809L444.169 7.016V35H440.665ZM508.086 35.528C505.654 35.528 503.382 35.096 501.27 34.232C499.158 33.336 497.302 32.104 495.702 30.536C494.102 28.936 492.854 27.096 491.958 25.016C491.094 22.904 490.662 20.632 490.662 18.2C490.662 15.768 491.094 13.512 491.958 11.432C492.854 9.32 494.102 7.48 495.702 5.912C497.302 4.312 499.158 3.08 501.27 2.216C503.382 1.32 505.654 0.871999 508.086 0.871999C509.846 0.871999 511.526 1.096 513.126 1.544C514.758 1.96 516.262 2.584 517.638 3.416C519.046 4.216 520.294 5.208 521.382 6.392L518.934 8.984C517.622 7.48 516.006 6.328 514.086 5.528C512.166 4.696 510.166 4.28 508.086 4.28C506.134 4.28 504.326 4.632 502.662 5.336C500.998 6.04 499.542 7.032 498.294 8.312C497.078 9.56 496.118 11.032 495.414 12.728C494.742 14.392 494.406 16.216 494.406 18.2C494.406 20.152 494.742 21.976 495.414 23.672C496.118 25.368 497.094 26.856 498.342 28.136C499.59 29.384 501.046 30.36 502.71 31.064C504.406 31.768 506.23 32.12 508.182 32.12C510.262 32.12 512.246 31.72 514.134 30.92C516.022 30.088 517.606 28.952 518.886 27.512L521.286 30.008C520.166 31.16 518.902 32.152 517.494 32.984C516.118 33.816 514.63 34.456 513.03 34.904C511.43 35.32 509.782 35.528 508.086 35.528ZM543.687 35V1.4H567.735V4.664H547.383V16.424H560.679V19.64H547.383V31.736H567.927V35H543.687Z" fill="#8B8B8B"/>
</svg>
